<svg xml:space="preserve" viewBox="0 0 283.46 283.46" height="283.46px" width="283.46px" y="0px" x="0px" xmlns:xlink="http://www.w3.org/1999/xlink" xmlns="http://www.w3.org/2000/svg" id="Layer_1" version="1.1">
<g>
	<g>
		<path d="M210.98,172.078c0,0-5.342,0-6.656,0c-1.311,0-2.059-2.857-2.059-2.857l0,0
			c-0.42-3.117-1.029-6.188-1.826-9.174c-0.029-0.361-0.309-2.91,0.812-3.379c1.217-0.5,6.16-2.541,6.16-2.541
			c1.365-0.584,2.027-2.15,1.457-3.525l-3.629-8.759c-0.568-1.375-2.15-2.027-3.527-1.459c0,0-4.93,2.042-6.148,2.549
			c-1.213,0.507-2.988-1.851-2.988-1.851l0,0c-1.564-2.68-3.303-5.275-5.174-7.732l0,0c0,0-1.49-2.549-0.561-3.47
			c0.93-0.937,4.709-4.715,4.709-4.715c1.059-1.052,1.059-2.764,0-3.808l-6.707-6.703c-1.051-1.052-2.764-1.052-3.814,0
			c0,0-3.771,3.77-4.697,4.706c-0.93,0.922-3.473-0.568-3.473-0.568l-0.016,0.008c-2.455-1.881-5.035-3.601-7.73-5.183l0,0
			c0,0-2.35-1.773-1.85-2.986c0.508-1.214,2.549-6.15,2.549-6.15c0.568-1.366-0.094-2.956-1.459-3.517l-8.752-3.632
			c-1.383-0.568-2.959,0.085-3.525,1.451c0,0-2.043,4.944-2.549,6.158c-0.459,1.128-3.018,0.859-3.373,0.813
			c-2.992-0.783-6.049-1.397-9.18-1.812v-0.016c0,0-2.85-0.737-2.85-2.05c0-1.313,0-6.657,0-6.657c0-1.489-1.205-2.702-2.695-2.702
			h-9.474c-1.49,0-2.702,1.213-2.702,2.702c0,0,0,5.344,0,6.657c0,1.312-2.85,2.05-2.85,2.05v0.016
			c-3.124,0.414-6.182,1.028-9.174,1.812c-0.354,0.038-2.913,0.314-3.38-0.813c-0.507-1.214-2.549-6.158-2.549-6.158
			c-0.567-1.366-2.149-2.02-3.519-1.451l-8.768,3.632c-1.364,0.561-2.026,2.15-1.45,3.517c0,0,2.033,4.937,2.541,6.15
			c0.507,1.213-1.842,2.986-1.842,2.986l0,0c-2.688,1.582-5.269,3.302-7.74,5.183v-0.008c0,0-2.549,1.49-3.471,0.568
			c-0.921-0.937-4.714-4.706-4.714-4.706c-1.045-1.052-2.749-1.052-3.809,0l-6.696,6.703c-1.06,1.044-1.06,2.756,0,3.808
			c0,0,3.778,3.778,4.708,4.707c0.929,0.929-0.567,3.478-0.567,3.478h0.007c-1.875,2.473-3.609,5.045-5.177,7.74v-0.016
			c0,0-1.78,2.366-2.992,1.858c-1.214-0.507-6.151-2.549-6.151-2.549c-1.374-0.568-2.956,0.092-3.523,1.459l-3.626,8.759
			c-0.567,1.375,0.086,2.957,1.46,3.525c0,0,4.938,2.035,6.149,2.541c1.13,0.469,0.854,3.01,0.808,3.371
			c-0.785,2.994-1.391,6.057-1.812,9.182l0,0c0,0-0.753,2.857-2.057,2.857c-1.314,0-6.665,0-6.665,0
			c-1.489,0-2.688,1.205-2.688,2.688v9.482c0,1.482,1.198,2.695,2.688,2.695c0,0,5.351,0,6.665,0c1.304,0,2.057,2.855,2.057,2.855
			l0,0c0.422,3.117,1.027,6.182,1.812,9.176c0.046,0.369,0.315,2.91-0.808,3.371c-1.212,0.506-6.149,2.549-6.149,2.549
			c-1.374,0.576-2.027,2.15-1.46,3.517l3.626,8.768c0.567,1.367,2.149,2.027,3.523,1.459c0,0,4.938-2.057,6.151-2.549
			c1.212-0.507,2.992,1.844,2.992,1.844l0,0c1.567,2.688,3.302,5.266,5.177,7.738l0,0c0,0,1.489,2.551,0.561,3.471
			c-0.93,0.93-4.708,4.715-4.708,4.715c-1.06,1.045-1.06,2.748,0,3.809l6.696,6.701c1.06,1.053,2.764,1.053,3.816,0
			c0,0,3.785-3.785,4.706-4.705c0.922-0.93,3.471,0.561,3.471,0.561l0.008-0.008c2.464,1.873,5.045,3.607,7.732,5.182l0,0
			c0,0,2.349,1.775,1.842,2.988c-0.508,1.213-2.541,6.156-2.541,6.156c-0.576,1.367,0.086,2.949,1.45,3.518l8.768,3.623
			c1.369,0.568,2.951-0.084,3.519-1.451c0,0,2.042-4.936,2.549-6.15c0.475-1.135,3.04-0.857,3.38-0.812
			c2.992,0.783,6.05,1.396,9.174,1.812l0,0c0,0,2.85,0.752,2.85,2.064s0,6.656,0,6.656c0,1.49,1.212,2.688,2.702,2.703h9.474
			c1.49,0,2.695-1.213,2.695-2.711c0,0,0-5.336,0-6.648s2.85-2.064,2.85-2.064l0,0c3.131-0.416,6.188-1.029,9.18-1.812
			c0.355-0.045,2.906-0.322,3.381,0.812c0.498,1.215,2.541,6.15,2.541,6.15c0.574,1.367,2.143,2.02,3.525,1.451l8.752-3.623
			c1.381-0.568,2.027-2.15,1.459-3.531c0,0-2.041-4.93-2.549-6.143c-0.5-1.213,1.85-2.988,1.85-2.988l0,0
			c2.688-1.574,5.275-3.309,7.73-5.182l0.016,0.008c0,0,2.543-1.49,3.473-0.561c0.926,0.92,4.697,4.705,4.697,4.705
			c1.059,1.053,2.764,1.053,3.822,0l6.699-6.701c1.059-1.061,1.059-2.764,0-3.809c0,0-3.779-3.785-4.709-4.715
			c-0.93-0.92,0.561-3.471,0.561-3.471v-0.008c1.871-2.465,3.609-5.043,5.174-7.73l0,0c0,0,1.783-2.351,2.996-1.844
			c1.211,0.492,6.141,2.549,6.141,2.549c1.377,0.553,2.959-0.092,3.527-1.474l3.629-8.753c0.57-1.366-0.092-2.948-1.457-3.517
			c0,0-4.943-2.043-6.16-2.549c-1.121-0.461-0.85-3.018-0.812-3.379c0.789-2.986,1.398-6.051,1.818-9.176h0.008
			c0,0,0.748-2.848,2.059-2.848c1.309,0,6.656,0,6.656,0c1.482,0,2.695-1.213,2.695-2.695v-9.482
			C213.676,173.275,212.463,172.078,210.98,172.078z" fill="#3D3D3C"></path>
	</g>
</g>
<g display="none">
	<path d="M124.968,102.776h15.503v2.194h-13.09v9.214h12.176v2.194h-12.176v12.286h-2.413V102.776z" fill="#FFFFFF" display="inline"></path>
	<path d="M145.042,101.021h2.193v27.643h-2.193V101.021z" fill="#FFFFFF" display="inline"></path>
	<path d="M168.37,125.482c-0.854,1.292-1.908,2.218-3.163,2.779
		c-1.256,0.561-2.639,0.841-4.15,0.841c-1.292,0-2.462-0.22-3.51-0.658c-1.049-0.439-1.95-1.054-2.706-1.847
		c-0.756-0.792-1.334-1.73-1.736-2.815c-0.402-1.084-0.604-2.285-0.604-3.602c0-1.267,0.207-2.438,0.621-3.51
		c0.415-1.072,1-2.005,1.756-2.797c0.755-0.792,1.646-1.413,2.669-1.865c1.023-0.451,2.157-0.676,3.4-0.676
		c1.292,0,2.432,0.226,3.419,0.676c0.987,0.452,1.815,1.048,2.486,1.792c0.67,0.744,1.176,1.59,1.518,2.541
		c0.341,0.951,0.512,1.914,0.512,2.889v1.536h-14.188c0,0.463,0.092,1.055,0.274,1.773c0.183,0.719,0.518,1.42,1.006,2.103
		c0.487,0.683,1.139,1.268,1.956,1.755c0.816,0.488,1.87,0.731,3.163,0.731c1.121,0,2.206-0.268,3.254-0.805
		c1.048-0.536,1.853-1.267,2.413-2.194L168.37,125.482z M166.688,118.791c0-0.755-0.152-1.462-0.457-2.121s-0.719-1.237-1.243-1.737
		c-0.524-0.5-1.146-0.896-1.864-1.188c-0.72-0.292-1.481-0.438-2.285-0.438c-1.195,0-2.188,0.244-2.98,0.731
		c-0.792,0.488-1.42,1.048-1.883,1.682c-0.464,0.634-0.793,1.25-0.987,1.847c-0.195,0.598-0.293,1.005-0.293,1.225H166.688z" fill="#FFFFFF" display="inline"></path>
	<path d="M178.096,119.522l-6.033-7.752h2.815l4.68,6.399l4.644-6.399h2.743l-5.961,7.752
		l7.24,9.141h-2.852l-5.888-7.642l-5.777,7.642h-2.632L178.096,119.522z" fill="#FFFFFF" display="inline"></path>
	<path d="M213.819,114.184v12.761c-0.635,0.391-1.354,0.731-2.157,1.024
		c-0.805,0.292-1.64,0.543-2.505,0.75c-0.865,0.207-1.743,0.359-2.633,0.457c-0.89,0.097-1.725,0.146-2.505,0.146
		c-2.193,0-4.149-0.366-5.868-1.097c-1.719-0.731-3.169-1.718-4.352-2.961s-2.084-2.688-2.705-4.333
		c-0.622-1.646-0.933-3.382-0.933-5.21c0-1.925,0.335-3.717,1.005-5.375c0.671-1.657,1.597-3.095,2.779-4.314
		c1.182-1.219,2.602-2.176,4.26-2.871c1.657-0.695,3.474-1.042,5.448-1.042c2.389,0,4.339,0.299,5.851,0.896
		c1.511,0.598,2.778,1.42,3.803,2.468l-2.486,2.669c-1.073-1.024-2.207-1.737-3.401-2.139s-2.449-0.603-3.766-0.603
		c-1.487,0-2.828,0.274-4.022,0.823c-1.194,0.548-2.218,1.286-3.071,2.212c-0.854,0.927-1.512,2.018-1.975,3.272
		c-0.463,1.256-0.694,2.59-0.694,4.004c0,1.462,0.256,2.822,0.768,4.077s1.219,2.346,2.121,3.272
		c0.901,0.927,1.962,1.651,3.181,2.175c1.219,0.524,2.547,0.786,3.985,0.786c1.243,0,2.419-0.115,3.529-0.347
		c1.108-0.231,2.053-0.567,2.833-1.005v-7.204h-5.74v-3.291H213.819z" fill="#FFFFFF" display="inline"></path>
	<path d="M221.863,121.205c0,0.756,0.165,1.444,0.494,2.066s0.761,1.151,1.298,1.59
		c0.536,0.439,1.157,0.78,1.864,1.024s1.438,0.366,2.194,0.366c1.023,0,1.913-0.238,2.669-0.713c0.756-0.475,1.45-1.103,2.084-1.883
		l2.486,1.901c-1.828,2.365-4.388,3.547-7.678,3.547c-1.366,0-2.603-0.232-3.712-0.695s-2.048-1.103-2.815-1.92
		c-0.768-0.816-1.359-1.779-1.773-2.888c-0.415-1.109-0.621-2.31-0.621-3.602c0-1.292,0.225-2.492,0.676-3.602
		c0.451-1.109,1.072-2.071,1.865-2.889c0.792-0.816,1.736-1.456,2.834-1.919c1.097-0.463,2.291-0.695,3.583-0.695
		c1.536,0,2.834,0.269,3.895,0.805c1.06,0.536,1.932,1.237,2.614,2.103c0.682,0.865,1.176,1.841,1.48,2.925
		c0.305,1.085,0.457,2.188,0.457,3.309v1.17H221.863z M232.248,118.572c-0.024-0.731-0.141-1.401-0.348-2.011
		c-0.207-0.609-0.519-1.139-0.933-1.59c-0.415-0.451-0.933-0.805-1.554-1.061c-0.622-0.256-1.348-0.384-2.176-0.384
		c-0.805,0-1.542,0.152-2.212,0.457c-0.671,0.305-1.237,0.701-1.7,1.188c-0.464,0.488-0.823,1.03-1.079,1.627
		c-0.256,0.598-0.384,1.188-0.384,1.773H232.248z" fill="#FFFFFF" display="inline"></path>
	<path d="M248.993,114.184h-4.717v7.861c0,0.488,0.013,0.969,0.037,1.444
		c0.023,0.475,0.115,0.902,0.274,1.28c0.158,0.378,0.401,0.683,0.73,0.914c0.329,0.232,0.811,0.347,1.444,0.347
		c0.39,0,0.792-0.037,1.207-0.109c0.414-0.073,0.792-0.207,1.134-0.402v2.998c-0.391,0.22-0.896,0.372-1.518,0.458
		c-0.622,0.085-1.104,0.128-1.444,0.128c-1.268,0-2.249-0.177-2.943-0.53c-0.695-0.353-1.207-0.81-1.536-1.371
		c-0.329-0.561-0.524-1.188-0.585-1.883s-0.091-1.395-0.091-2.103v-9.031h-3.803v-2.852h3.803v-4.863h3.29v4.863h4.717V114.184z" fill="#FFFFFF" display="inline"></path>
</g>
<g>
	<path d="M17.347,266.109c1.854,1.852,2.981,4.362,2.988,7.159c-0.006,2.792-1.134,5.305-2.981,7.148l-0.006,0.004
		c-1.85,1.841-4.378,2.969-7.188,2.969c-2.807,0-5.328-1.13-7.178-2.973C1.136,278.573,0,276.064,0,273.269
		c0-2.797,1.136-5.314,2.981-7.161v0.002c1.85-1.844,4.372-2.979,7.178-2.979C12.969,263.131,15.494,264.269,17.347,266.109z" fill="#F47920"></path>
	<path d="M0.068,232.952v14.613c9.54,0.005,18.563,3.754,25.315,10.516c6.749,6.742,10.481,15.778,10.497,25.351
		h0.005v0.028h14.673c-0.012-13.921-5.67-26.529-14.818-35.684C26.592,238.623,13.989,232.961,0.068,232.952z" fill="#F47920"></path>
	<path d="M54.146,229.381" fill="#F47920"></path>
	<g>
		<path d="M84.288,276.027c0,0-5.34,0-6.655,0c-1.312,0-2.059-2.856-2.059-2.856
			c-0.42-3.117-1.029-6.188-1.826-9.175c-0.03-0.361-0.309-2.911,0.812-3.378c1.217-0.5,6.161-2.542,6.161-2.542
			c1.364-0.583,2.027-2.15,1.456-3.524l-3.629-8.76c-0.568-1.375-2.15-2.027-3.526-1.459c0,0-4.93,2.041-6.149,2.549
			c-1.212,0.507-2.988-1.852-2.988-1.852c-1.563-2.68-3.302-5.274-5.174-7.731c0,0-1.49-2.55-0.56-3.47
			c0.93-0.938,4.708-4.715,4.708-4.715c1.06-1.053,1.06-2.764,0-3.809l-6.706-6.702c-1.052-1.052-2.764-1.052-3.815,0
			c0,0-3.771,3.769-4.697,4.706c-0.93,0.922-3.473-0.568-3.473-0.568l-0.015,0.008c-2.455-1.881-5.036-3.601-7.731-5.183
			c0,0-2.349-1.773-1.849-2.987c0.507-1.213,2.548-6.149,2.548-6.149c0.568-1.366-0.093-2.957-1.458-3.518l-8.752-3.631
			c-1.384-0.568-2.959,0.086-3.526,1.451c0,0-2.042,4.944-2.549,6.157c-0.459,1.129-3.018,0.859-3.372,0.814
			c-2.992-0.783-6.05-1.397-9.181-1.812v-0.015c0,0-2.85-0.737-2.85-2.05c0-1.313,0-6.657,0-6.657c0-1.488-1.205-2.701-2.695-2.701
			H0v25.066c34.099,0.025,61.917,27.791,61.941,61.925h25.041v-4.745C86.982,277.226,85.771,276.027,84.288,276.027z" fill="#F47920"></path>
	</g>
</g>
<g>
	<path d="M114.175,130.224c0-3.476,1.215-6.429,3.65-8.866c2.434-2.432,5.387-3.65,8.866-3.65
		c3.476,0,6.43,1.218,8.866,3.65c2.433,2.438,3.65,5.391,3.65,8.866c0,3.479-1.218,6.434-3.65,8.867
		c-2.437,2.437-5.391,3.65-8.866,3.65c-3.479,0-6.433-1.213-8.866-3.65C115.39,136.658,114.175,133.703,114.175,130.224z
		 M114.175,228.797c0-3.476,1.215-6.43,3.65-8.866c2.434-2.434,5.387-3.651,8.866-3.651c3.476,0,6.43,1.218,8.866,3.651
		c2.433,2.437,3.65,5.391,3.65,8.866c0,3.479-1.218,6.433-3.65,8.865c-2.437,2.434-5.391,3.651-8.866,3.651
		c-3.479,0-6.433-1.218-8.866-3.651C115.39,235.229,114.175,232.276,114.175,228.797z" fill="#FFFFFF"></path>
</g>
<g>
	<path d="M57.629,169.109h16.79v5.959h-7.613v2.152h6.682v5.407h-6.682v7.283h-9.176V169.109z" fill="#FFFFFF"></path>
	<path d="M77.644,169.109h9.108v14.125H94.4v6.677H77.644V169.109z" fill="#FFFFFF"></path>
	<path d="M96.763,169.109h16.854v5.684h-7.68v1.986h7.016v5.407h-7.016v2.042h7.946v5.683H96.763V169.109z" fill="#FFFFFF"></path>
	<path d="M161.494,177.662c-0.057,3.393-0.057,6.234-2.512,8.883c-2.207,2.4-5.6,3.697-8.828,3.697
		c-6.346,0-11.476-3.918-11.476-10.594c0-6.787,4.994-10.869,11.531-10.869c3.615,0,8.58,1.793,10.209,5.352l-7.062,2.594
		c-0.58-1.049-1.656-1.601-2.869-1.601c-2.705,0-4.193,2.317-4.193,4.827c0,2.291,1.434,4.442,3.889,4.442
		c1.188,0,2.705-0.552,3.062-1.821h-3.42v-4.91H161.494z" fill="#FFFFFF"></path>
	<path d="M163.979,169.109h13.986v5.684h-6.373v1.986h5.822v5.407h-5.822v2.042h6.594v5.683h-14.207V169.109z" fill="#FFFFFF"></path>
	<path d="M179.871,169.109h15.891v6.76l-4.166-0.193v14.235h-7.559v-14.235l-4.166,0.193V169.109z" fill="#FFFFFF"></path>
</g>
<polygon points="137.458,174.95 131.252,168.743 126.692,173.305 122.131,168.744 115.924,174.951 120.485,179.512 
	115.925,184.07 122.132,190.277 126.692,185.718 131.251,190.277 137.458,184.071 132.898,179.512" fill="#FFFFFF"></polygon>
<polygon points="134.027,176.098 130.104,172.176 126.691,175.588 123.278,172.176 119.355,176.1 122.768,179.511 
	119.355,182.922 123.28,186.848 126.691,183.436 130.104,186.848 134.027,182.922 130.616,179.511" fill="#3D3D3C"></polygon>
<g>
	<path d="M77.644,169.109h9.108v14.125H94.4v6.677H77.644V169.109z" fill="#FFFFFF"></path>
	<path d="M96.763,169.109h16.854v5.684h-7.68v1.986h7.016v5.407h-7.016v2.042h7.946v5.683H96.763V169.109z" fill="#FFFFFF"></path>
</g>
<g>
	<g>
		<g>
			<g>
				<path d="M81.72,39.077c0,0-2.002,0-2.494,0c-0.491,0-0.771-1.071-0.771-1.071l0,0
					c-0.158-1.168-0.386-2.318-0.685-3.438c-0.011-0.136-0.115-1.09,0.305-1.266c0.456-0.187,2.308-0.952,2.308-0.952
					c0.512-0.219,0.759-0.806,0.546-1.321l-1.36-3.282c-0.213-0.515-0.806-0.76-1.322-0.547c0,0-1.847,0.765-2.304,0.955
					c-0.455,0.19-1.12-0.694-1.12-0.694l0,0c-0.586-1.004-1.237-1.977-1.938-2.897l0,0c0,0-0.559-0.956-0.21-1.3
					c0.349-0.351,1.764-1.767,1.764-1.767c0.397-0.394,0.397-1.036,0-1.427l-2.513-2.512c-0.394-0.394-1.035-0.394-1.429,0
					c0,0-1.413,1.413-1.76,1.764c-0.349,0.345-1.302-0.213-1.302-0.213l-0.005,0.003c-0.92-0.705-1.887-1.349-2.896-1.942l0,0
					c0,0-0.881-0.665-0.693-1.119c0.19-0.455,0.955-2.305,0.955-2.305c0.213-0.512-0.035-1.107-0.547-1.317l-3.279-1.361
					c-0.518-0.212-1.109,0.032-1.321,0.544c0,0-0.766,1.852-0.955,2.307c-0.172,0.423-1.131,0.322-1.265,0.305
					c-1.121-0.294-2.266-0.524-3.439-0.679V13.54c0,0-1.068-0.276-1.068-0.768c0-0.492,0-2.494,0-2.494
					c0-0.558-0.452-1.013-1.01-1.013h-3.55c-0.559,0-1.013,0.455-1.013,1.013c0,0,0,2.002,0,2.494c0,0.492-1.068,0.768-1.068,0.768
					v0.006c-1.171,0.155-2.316,0.385-3.437,0.679c-0.133,0.014-1.092,0.118-1.267-0.305c-0.189-0.455-0.956-2.307-0.956-2.307
					c-0.212-0.512-0.804-0.757-1.317-0.544l-3.286,1.361c-0.511,0.21-0.76,0.806-0.544,1.317c0,0,0.762,1.85,0.952,2.305
					c0.19,0.455-0.689,1.119-0.689,1.119l0,0c-1.007,0.593-1.974,1.237-2.9,1.942v-0.003c0,0-0.955,0.558-1.301,0.213
					c-0.345-0.351-1.766-1.764-1.766-1.764c-0.391-0.394-1.03-0.394-1.427,0l-2.51,2.512c-0.396,0.391-0.396,1.033,0,1.427
					c0,0,1.417,1.416,1.765,1.764c0.347,0.348-0.213,1.303-0.213,1.303h0.003c-0.702,0.926-1.352,1.89-1.94,2.9v-0.006
					c0,0-0.667,0.886-1.121,0.696c-0.455-0.19-2.305-0.955-2.305-0.955c-0.515-0.213-1.108,0.034-1.32,0.547l-1.359,3.282
					c-0.212,0.515,0.032,1.107,0.547,1.321c0,0,1.85,0.763,2.304,0.952c0.423,0.176,0.32,1.128,0.303,1.263
					c-0.294,1.122-0.521,2.269-0.68,3.44l0,0c0,0-0.282,1.071-0.771,1.071c-0.492,0-2.498,0-2.498,0
					c-0.558,0-1.006,0.452-1.006,1.007v3.553c0,0.556,0.449,1.01,1.006,1.01c0,0,2.006,0,2.498,0c0.489,0,0.771,1.07,0.771,1.07l0,0
					c0.159,1.168,0.385,2.316,0.68,3.438c0.017,0.139,0.118,1.091-0.303,1.264c-0.454,0.189-2.304,0.955-2.304,0.955
					c-0.515,0.216-0.76,0.806-0.547,1.318l1.359,3.285c0.212,0.513,0.805,0.76,1.32,0.547c0,0,1.851-0.771,2.305-0.955
					c0.454-0.19,1.121,0.691,1.121,0.691l0,0c0.588,1.007,1.238,1.973,1.94,2.9l0,0c0,0,0.558,0.956,0.21,1.3
					c-0.349,0.348-1.765,1.767-1.765,1.767c-0.396,0.392-0.396,1.03,0,1.427l2.51,2.511c0.397,0.395,1.036,0.395,1.431,0
					c0,0,1.418-1.418,1.763-1.763c0.346-0.348,1.301,0.21,1.301,0.21l0.002-0.003c0.924,0.702,1.891,1.352,2.898,1.941l0,0
					c0,0,0.88,0.666,0.689,1.12c-0.19,0.455-0.952,2.307-0.952,2.307c-0.216,0.512,0.033,1.105,0.544,1.318l3.286,1.357
					c0.513,0.213,1.105-0.031,1.317-0.543c0,0,0.766-1.849,0.956-2.305c0.178-0.425,1.14-0.321,1.267-0.305
					c1.121,0.294,2.266,0.523,3.437,0.679l0,0c0,0,1.068,0.282,1.068,0.774s0,2.494,0,2.494c0,0.558,0.454,1.007,1.013,1.013h3.55
					c0.558,0,1.01-0.455,1.01-1.016c0,0,0-2,0-2.491s1.068-0.774,1.068-0.774l0,0c1.173-0.156,2.318-0.385,3.439-0.679
					c0.134-0.017,1.09-0.121,1.268,0.305c0.187,0.456,0.952,2.305,0.952,2.305c0.215,0.512,0.803,0.757,1.321,0.543l3.279-1.357
					c0.517-0.213,0.76-0.806,0.547-1.323c0,0-0.765-1.847-0.955-2.302c-0.188-0.454,0.693-1.12,0.693-1.12l0,0
					c1.006-0.59,1.976-1.24,2.896-1.941l0.005,0.003c0,0,0.953-0.559,1.302-0.21c0.347,0.345,1.76,1.763,1.76,1.763
					c0.396,0.395,1.035,0.395,1.432,0l2.51-2.511c0.397-0.397,0.397-1.036,0-1.427c0,0-1.416-1.418-1.764-1.767
					c-0.348-0.345,0.21-1.3,0.21-1.3v-0.003c0.701-0.923,1.352-1.889,1.938-2.896l0,0c0,0,0.669-0.881,1.123-0.691
					c0.454,0.185,2.301,0.955,2.301,0.955c0.516,0.207,1.109-0.034,1.322-0.552l1.36-3.28c0.213-0.512-0.034-1.104-0.546-1.318
					c0,0-1.852-0.765-2.308-0.955c-0.42-0.173-0.318-1.131-0.305-1.266c0.296-1.119,0.524-2.268,0.682-3.438h0.003
					c0,0,0.28-1.067,0.771-1.067c0.49,0,2.494,0,2.494,0c0.556,0,1.01-0.455,1.01-1.01v-3.553
					C82.73,39.525,82.276,39.077,81.72,39.077z" fill="#3D3D3C"></path>
			</g>
		</g>
		<g>
			<path d="M22.953,60.548" fill="#F47920"></path>
		</g>
		<g>
			<path d="M45.447,23.393c0-1.302,0.455-2.409,1.367-3.322c0.913-0.912,2.019-1.368,3.322-1.368
				s2.409,0.457,3.323,1.368c0.911,0.913,1.368,2.02,1.368,3.322c0,1.304-0.457,2.411-1.368,3.323
				c-0.914,0.913-2.02,1.368-3.323,1.368s-2.41-0.455-3.322-1.368C45.902,25.804,45.447,24.697,45.447,23.393z M45.447,60.33
				c0-1.303,0.455-2.41,1.367-3.323c0.913-0.912,2.019-1.368,3.322-1.368s2.409,0.457,3.323,1.368
				c0.911,0.913,1.368,2.02,1.368,3.323c0,1.303-0.457,2.41-1.368,3.322c-0.914,0.912-2.02,1.368-3.323,1.368
				s-2.41-0.457-3.322-1.368C45.902,62.74,45.447,61.633,45.447,60.33z" fill="#FFFFFF"></path>
		</g>
		<g>
			<path d="M24.257,37.964h6.292v2.233h-2.854v0.807H30.2v2.026h-2.504v2.729h-3.438V37.964z" fill="#FFFFFF"></path>
			<path d="M31.758,37.964h3.412v5.292h2.866v2.502h-6.278V37.964z" fill="#FFFFFF"></path>
			<path d="M38.922,37.964h6.315v2.129H42.36v0.745h2.628v2.026H42.36v0.765h2.977v2.129h-6.415V37.964z" fill="#FFFFFF"></path>
			<path d="M63.177,41.169c-0.021,1.271-0.021,2.336-0.941,3.329c-0.827,0.899-2.098,1.385-3.308,1.385
				c-2.377,0-4.3-1.468-4.3-3.969c0-2.543,1.872-4.073,4.321-4.073c1.354,0,3.215,0.672,3.825,2.005l-2.646,0.972
				c-0.217-0.393-0.621-0.6-1.075-0.6c-1.014,0-1.572,0.869-1.572,1.809c0,0.858,0.537,1.665,1.458,1.665
				c0.445,0,1.014-0.207,1.147-0.683h-1.281v-1.84H63.177z" fill="#FFFFFF"></path>
			<path d="M64.108,37.964h5.241v2.129h-2.388v0.745h2.182v2.026h-2.182v0.765h2.47v2.129h-5.323V37.964z" fill="#FFFFFF"></path>
			<path d="M70.063,37.964h5.954v2.533l-1.561-0.072v5.334h-2.832v-5.334l-1.561,0.072V37.964z" fill="#FFFFFF"></path>
		</g>
		<polygon points="54.171,40.153 51.845,37.827 50.136,39.536 48.427,37.827 46.101,40.153 47.811,41.862 
			46.102,43.57 48.428,45.896 50.136,44.188 51.845,45.896 54.171,43.571 52.462,41.862" fill="#FFFFFF"></polygon>
		<g>
			<path d="M31.758,37.964h3.412v5.292h2.866v2.502h-6.278V37.964z" fill="#FFFFFF"></path>
			<path d="M38.922,37.964h6.315v2.129H42.36v0.745h2.628v2.026H42.36v0.765h2.977v2.129h-6.415V37.964z" fill="#FFFFFF"></path>
		</g>
	</g>
	<g>
		<g>
			<g>
				<path d="M173.314,39.077c0,0-2.002,0-2.494,0s-0.771-1.071-0.771-1.071l0,0
					c-0.158-1.168-0.387-2.318-0.686-3.438c-0.01-0.136-0.115-1.09,0.305-1.266c0.457-0.187,2.309-0.952,2.309-0.952
					c0.512-0.219,0.76-0.806,0.547-1.321l-1.361-3.282c-0.213-0.515-0.805-0.76-1.32-0.547c0,0-1.848,0.765-2.305,0.955
					c-0.455,0.19-1.119-0.694-1.119-0.694l0,0c-0.588-1.004-1.238-1.977-1.939-2.897l0,0c0,0-0.559-0.956-0.209-1.3
					c0.348-0.351,1.764-1.767,1.764-1.767c0.396-0.394,0.396-1.036,0-1.427l-2.514-2.512c-0.393-0.394-1.035-0.394-1.428,0
					c0,0-1.414,1.413-1.762,1.764c-0.348,0.345-1.301-0.213-1.301-0.213l-0.006,0.003c-0.92-0.705-1.887-1.349-2.896-1.942l0,0
					c0,0-0.881-0.665-0.693-1.119c0.189-0.455,0.955-2.305,0.955-2.305c0.213-0.512-0.035-1.107-0.547-1.317l-3.279-1.361
					c-0.518-0.212-1.109,0.032-1.32,0.544c0,0-0.766,1.852-0.955,2.307c-0.172,0.423-1.131,0.322-1.266,0.305
					c-1.119-0.294-2.266-0.524-3.438-0.679V13.54c0,0-1.068-0.276-1.068-0.768c0-0.492,0-2.494,0-2.494
					c0-0.558-0.453-1.013-1.01-1.013h-3.55c-0.559,0-1.013,0.455-1.013,1.013c0,0,0,2.002,0,2.494c0,0.492-1.067,0.768-1.067,0.768
					v0.006c-1.172,0.155-2.316,0.385-3.438,0.679c-0.133,0.014-1.092,0.118-1.268-0.305c-0.189-0.455-0.955-2.307-0.955-2.307
					c-0.212-0.512-0.805-0.757-1.317-0.544l-3.286,1.361c-0.511,0.21-0.76,0.806-0.543,1.317c0,0,0.762,1.85,0.951,2.305
					c0.191,0.455-0.689,1.119-0.689,1.119l0,0c-1.007,0.593-1.974,1.237-2.9,1.942v-0.003c0,0-0.955,0.558-1.301,0.213
					c-0.344-0.351-1.766-1.764-1.766-1.764c-0.391-0.394-1.03-0.394-1.428,0l-2.51,2.512c-0.396,0.391-0.396,1.033,0,1.427
					c0,0,1.417,1.416,1.766,1.764c0.348,0.348-0.213,1.303-0.213,1.303h0.002c-0.701,0.926-1.352,1.89-1.939,2.9v-0.006
					c0,0-0.667,0.886-1.121,0.696c-0.455-0.19-2.305-0.955-2.305-0.955c-0.516-0.213-1.108,0.034-1.32,0.547l-1.359,3.282
					c-0.212,0.515,0.033,1.107,0.548,1.321c0,0,1.85,0.763,2.304,0.952c0.424,0.176,0.32,1.128,0.303,1.263
					c-0.294,1.122-0.521,2.269-0.68,3.44l0,0c0,0-0.281,1.071-0.77,1.071c-0.492,0-2.498,0-2.498,0
					c-0.559,0-1.007,0.452-1.007,1.007v3.553c0,0.556,0.448,1.01,1.007,1.01c0,0,2.006,0,2.498,0c0.488,0,0.77,1.07,0.77,1.07l0,0
					c0.159,1.168,0.386,2.316,0.68,3.438c0.018,0.139,0.118,1.091-0.303,1.264c-0.454,0.189-2.304,0.955-2.304,0.955
					c-0.515,0.216-0.76,0.806-0.548,1.318l1.359,3.286c0.212,0.512,0.805,0.76,1.32,0.547c0,0,1.85-0.771,2.305-0.955
					c0.454-0.19,1.121,0.69,1.121,0.69l0,0c0.588,1.007,1.238,1.974,1.939,2.899l0,0c0,0,0.559,0.956,0.211,1.301
					c-0.349,0.348-1.766,1.767-1.766,1.767c-0.396,0.392-0.396,1.03,0,1.427l2.51,2.512c0.397,0.395,1.037,0.395,1.432,0
					c0,0,1.418-1.418,1.762-1.764c0.346-0.348,1.301,0.211,1.301,0.211l0.003-0.004c0.924,0.702,1.891,1.352,2.897,1.941l0,0
					c0,0,0.881,0.666,0.689,1.12c-0.189,0.455-0.951,2.308-0.951,2.308c-0.217,0.512,0.032,1.104,0.543,1.317l3.286,1.357
					c0.513,0.214,1.105-0.031,1.317-0.544c0,0,0.766-1.849,0.955-2.305c0.178-0.425,1.141-0.32,1.268-0.305
					c1.121,0.295,2.266,0.523,3.438,0.68l0,0c0,0,1.067,0.282,1.067,0.773c0,0.492,0,2.494,0,2.494c0,0.559,0.454,1.008,1.013,1.014
					h3.55c0.557,0,1.01-0.455,1.01-1.016c0,0,0-2,0-2.492c0-0.491,1.068-0.773,1.068-0.773l0,0c1.172-0.156,2.318-0.385,3.438-0.68
					c0.135-0.016,1.09-0.12,1.268,0.305c0.188,0.456,0.953,2.305,0.953,2.305c0.215,0.513,0.803,0.758,1.32,0.544l3.279-1.357
					c0.518-0.213,0.76-0.806,0.547-1.323c0,0-0.766-1.847-0.955-2.302c-0.188-0.454,0.693-1.12,0.693-1.12l0,0
					c1.006-0.59,1.977-1.239,2.896-1.941l0.006,0.004c0,0,0.953-0.559,1.301-0.211c0.348,0.346,1.762,1.764,1.762,1.764
					c0.395,0.395,1.035,0.395,1.432,0l2.51-2.512c0.396-0.396,0.396-1.035,0-1.427c0,0-1.416-1.419-1.764-1.767
					c-0.35-0.345,0.209-1.301,0.209-1.301v-0.003c0.701-0.923,1.352-1.89,1.939-2.896l0,0c0,0,0.668-0.881,1.123-0.69
					c0.453,0.184,2.301,0.955,2.301,0.955c0.516,0.207,1.107-0.035,1.32-0.553l1.361-3.28c0.213-0.512-0.035-1.104-0.547-1.318
					c0,0-1.852-0.765-2.309-0.955c-0.42-0.173-0.318-1.131-0.305-1.266c0.297-1.119,0.525-2.268,0.682-3.438h0.004
					c0,0,0.279-1.067,0.771-1.067c0.49,0,2.494,0,2.494,0c0.555,0,1.01-0.455,1.01-1.01v-3.553
					C174.324,39.525,173.869,39.077,173.314,39.077z" fill="#3D3D3C"></path>
			</g>
		</g>
		<g>
			<path d="M114.546,60.549" fill="#F47920"></path>
		</g>
		<g>
			<path d="M137.041,23.393c0-1.302,0.455-2.409,1.367-3.322c0.913-0.912,2.019-1.368,3.322-1.368
				c1.303,0,2.409,0.457,3.323,1.368c0.91,0.913,1.367,2.02,1.367,3.322c0,1.304-0.457,2.411-1.367,3.323
				c-0.914,0.913-2.02,1.368-3.323,1.368c-1.304,0-2.409-0.455-3.322-1.368C137.496,25.804,137.041,24.697,137.041,23.393z
				 M137.041,60.33c0-1.303,0.455-2.41,1.367-3.322c0.913-0.912,2.019-1.369,3.322-1.369c1.303,0,2.409,0.457,3.323,1.369
				c0.91,0.912,1.367,2.02,1.367,3.322s-0.457,2.41-1.367,3.322c-0.914,0.911-2.02,1.367-3.323,1.367
				c-1.304,0-2.409-0.456-3.322-1.367C137.496,62.74,137.041,61.633,137.041,60.33z" fill="#FFFFFF"></path>
		</g>
		<polygon points="145.766,40.153 143.439,37.827 141.73,39.536 140.021,37.827 137.695,40.153 139.405,41.862 
			137.696,43.57 140.022,45.896 141.73,44.188 143.439,45.896 145.766,43.571 144.055,41.862" fill="#FFFFFF"></polygon>
	</g>
	<g>
		<g>
			<g>
				<path d="M264.908,39.077c0,0-2.002,0-2.494,0s-0.771-1.071-0.771-1.071l0,0
					c-0.158-1.168-0.387-2.318-0.686-3.438c-0.01-0.136-0.115-1.09,0.305-1.266c0.457-0.187,2.309-0.952,2.309-0.952
					c0.512-0.219,0.76-0.806,0.547-1.321l-1.361-3.282c-0.213-0.515-0.805-0.76-1.32-0.547c0,0-1.848,0.765-2.305,0.955
					c-0.455,0.19-1.119-0.694-1.119-0.694l0,0c-0.588-1.004-1.238-1.977-1.939-2.897l0,0c0,0-0.559-0.956-0.209-1.3
					c0.348-0.351,1.764-1.767,1.764-1.767c0.396-0.394,0.396-1.036,0-1.427l-2.514-2.512c-0.393-0.394-1.035-0.394-1.428,0
					c0,0-1.414,1.413-1.762,1.764c-0.348,0.345-1.301-0.213-1.301-0.213l-0.006,0.003c-0.92-0.705-1.887-1.349-2.896-1.942l0,0
					c0,0-0.881-0.665-0.693-1.119c0.189-0.455,0.955-2.305,0.955-2.305c0.213-0.512-0.035-1.107-0.547-1.317l-3.279-1.361
					c-0.518-0.212-1.109,0.032-1.32,0.544c0,0-0.766,1.852-0.955,2.307c-0.172,0.423-1.131,0.322-1.266,0.305
					c-1.119-0.294-2.266-0.524-3.438-0.679V13.54c0,0-1.068-0.276-1.068-0.768c0-0.492,0-2.494,0-2.494
					c0-0.558-0.453-1.013-1.01-1.013h-3.551c-0.559,0-1.012,0.455-1.012,1.013c0,0,0,2.002,0,2.494c0,0.492-1.068,0.768-1.068,0.768
					v0.006c-1.172,0.155-2.316,0.385-3.438,0.679c-0.133,0.014-1.092,0.118-1.268-0.305c-0.189-0.455-0.955-2.307-0.955-2.307
					c-0.211-0.512-0.805-0.757-1.316-0.544l-3.287,1.361c-0.51,0.21-0.76,0.806-0.543,1.317c0,0,0.762,1.85,0.951,2.305
					c0.191,0.455-0.689,1.119-0.689,1.119l0,0c-1.006,0.593-1.973,1.237-2.9,1.942v-0.003c0,0-0.955,0.558-1.301,0.213
					c-0.344-0.351-1.766-1.764-1.766-1.764c-0.391-0.394-1.029-0.394-1.428,0l-2.51,2.512c-0.395,0.391-0.395,1.033,0,1.427
					c0,0,1.418,1.416,1.766,1.764c0.348,0.348-0.213,1.303-0.213,1.303h0.002c-0.701,0.926-1.352,1.89-1.939,2.9v-0.006
					c0,0-0.666,0.886-1.121,0.696s-2.305-0.955-2.305-0.955c-0.516-0.213-1.107,0.034-1.32,0.547l-1.359,3.282
					c-0.211,0.515,0.033,1.107,0.549,1.321c0,0,1.85,0.763,2.303,0.952c0.424,0.176,0.32,1.128,0.303,1.263
					c-0.293,1.122-0.52,2.269-0.68,3.44l0,0c0,0-0.281,1.071-0.77,1.071c-0.492,0-2.498,0-2.498,0c-0.559,0-1.006,0.452-1.006,1.007
					v3.553c0,0.556,0.447,1.01,1.006,1.01c0,0,2.006,0,2.498,0c0.488,0,0.77,1.07,0.77,1.07l0,0c0.16,1.168,0.387,2.316,0.68,3.438
					c0.018,0.139,0.119,1.091-0.303,1.264c-0.453,0.189-2.303,0.955-2.303,0.955c-0.516,0.216-0.76,0.806-0.549,1.318l1.359,3.285
					c0.213,0.513,0.805,0.76,1.32,0.547c0,0,1.85-0.771,2.305-0.955c0.455-0.19,1.121,0.691,1.121,0.691l0,0
					c0.588,1.007,1.238,1.973,1.939,2.9l0,0c0,0,0.559,0.956,0.211,1.3c-0.348,0.348-1.766,1.767-1.766,1.767
					c-0.395,0.392-0.395,1.03,0,1.427l2.51,2.511c0.398,0.395,1.037,0.395,1.432,0c0,0,1.418-1.418,1.762-1.763
					c0.346-0.348,1.301,0.21,1.301,0.21l0.004-0.003c0.924,0.702,1.891,1.352,2.896,1.941l0,0c0,0,0.881,0.666,0.689,1.12
					c-0.189,0.455-0.951,2.307-0.951,2.307c-0.217,0.512,0.033,1.105,0.543,1.318l3.287,1.357c0.512,0.213,1.105-0.031,1.316-0.543
					c0,0,0.766-1.849,0.955-2.305c0.178-0.425,1.141-0.321,1.268-0.305c1.121,0.294,2.266,0.523,3.438,0.679l0,0
					c0,0,1.068,0.282,1.068,0.774s0,2.494,0,2.494c0,0.558,0.453,1.007,1.012,1.013h3.551c0.557,0,1.01-0.455,1.01-1.016
					c0,0,0-2,0-2.491s1.068-0.774,1.068-0.774l0,0c1.172-0.156,2.318-0.385,3.438-0.679c0.135-0.017,1.09-0.121,1.268,0.305
					c0.188,0.456,0.953,2.305,0.953,2.305c0.215,0.512,0.803,0.757,1.32,0.543l3.279-1.357c0.518-0.213,0.76-0.806,0.547-1.323
					c0,0-0.766-1.847-0.955-2.302c-0.188-0.454,0.693-1.12,0.693-1.12l0,0c1.006-0.59,1.977-1.24,2.896-1.941l0.006,0.003
					c0,0,0.953-0.559,1.301-0.21c0.348,0.345,1.762,1.763,1.762,1.763c0.395,0.395,1.035,0.395,1.432,0l2.51-2.511
					c0.396-0.397,0.396-1.036,0-1.427c0,0-1.416-1.418-1.764-1.767c-0.35-0.345,0.209-1.3,0.209-1.3v-0.003
					c0.701-0.923,1.352-1.889,1.939-2.896l0,0c0,0,0.668-0.881,1.123-0.691c0.453,0.185,2.301,0.955,2.301,0.955
					c0.516,0.207,1.107-0.034,1.32-0.552l1.361-3.28c0.213-0.512-0.035-1.104-0.547-1.318c0,0-1.852-0.765-2.309-0.955
					c-0.42-0.173-0.318-1.131-0.305-1.266c0.297-1.119,0.525-2.268,0.682-3.438h0.004c0,0,0.279-1.067,0.771-1.067
					c0.49,0,2.494,0,2.494,0c0.555,0,1.01-0.455,1.01-1.01v-3.553C265.918,39.525,265.463,39.077,264.908,39.077z" fill="#3D3D3C"></path>
			</g>
		</g>
		<g>
			<path d="M206.141,60.548" fill="#F47920"></path>
		</g>
		<g>
			<path d="M228.635,23.393c0-1.302,0.455-2.409,1.367-3.322c0.912-0.912,2.018-1.368,3.322-1.368
				c1.303,0,2.408,0.457,3.322,1.368c0.91,0.913,1.367,2.02,1.367,3.322c0,1.304-0.457,2.411-1.367,3.323
				c-0.914,0.913-2.02,1.368-3.322,1.368c-1.305,0-2.41-0.455-3.322-1.368C229.09,25.804,228.635,24.697,228.635,23.393z
				 M228.635,60.33c0-1.303,0.455-2.41,1.367-3.323c0.912-0.912,2.018-1.368,3.322-1.368c1.303,0,2.408,0.457,3.322,1.368
				c0.91,0.913,1.367,2.02,1.367,3.323c0,1.303-0.457,2.41-1.367,3.322c-0.914,0.912-2.02,1.368-3.322,1.368
				c-1.305,0-2.41-0.457-3.322-1.368C229.09,62.74,228.635,61.633,228.635,60.33z" fill="#FFFFFF"></path>
		</g>
	</g>
</g>
<g>
</g>
<g>
</g>
<g>
</g>
<g>
</g>
<g>
</g>
<g>
</g>
</svg>
