<?xml version="1.0"?>
<!DOCTYPE svg PUBLIC "-//W3C//DTD SVG 1.1//EN" "http://www.w3.org/Graphics/SVG/1.1/DTD/svg11.dtd">
<svg xmlns="http://www.w3.org/2000/svg" xmlns:xl="http://www.w3.org/1999/xlink" version="1.1" viewBox="161 84 237 237" width="237pt" height="237pt"><metadata xmlns:dc="http://purl.org/dc/elements/1.1/"><dc:date>2012-12-09 22:22Z</dc:date><!-- Produced by OmniGraffle Professional 5.4.2 --></metadata><defs><radialGradient cx="0" cy="0" r="1" id="Gradient" gradientUnits="userSpaceOnUse"><stop offset="0" stop-color="#ffd219"/><stop offset="1" stop-color="red"/></radialGradient><radialGradient id="Obj_Gradient" xl:href="#Gradient" gradientTransform="translate(239.30952 161.30952) scale(177.61848)"/></defs><g stroke="none" stroke-opacity="1" stroke-dasharray="none" fill="none" fill-opacity="1"><title>Canvas 1</title><g><title>Layer 1</title><circle cx="279.5" cy="201.5" r="105.50017" fill="url(#Obj_Gradient)"/><path d="M 349.10982 203.3934 L 318.53226 203.3934 C 318.08097 212.75409 314.28095 221.98344 307.13218 229.13217 C 299.98346 236.28094 290.7541 240.08096 281.39341 240.53225 L 281.3934 271.1098 C 298.57832 270.64527 315.62403 263.85519 328.73958 250.73957 C 341.8552 237.62402 348.64528 220.5783 349.10982 203.39339 Z M 349.10982 199.60657 C 348.64528 182.42166 341.8552 165.37595 328.73958 152.2604 C 315.62403 139.14478 298.57832 132.3547 281.3934 131.89017 L 281.3934 162.46773 C 290.7541 162.91901 299.98345 166.71904 307.13218 173.8678 C 314.28095 181.01653 318.08097 190.24588 318.53226 199.60658 Z M 277.60658 131.89017 C 260.42167 132.354705 243.37596 139.14478 230.26041 152.2604 C 217.14479 165.37595 210.35471 182.42167 209.89018 199.60658 L 240.46774 199.60658 C 240.91902 190.24588 244.71905 181.01653 251.86781 173.8678 C 259.01654 166.71904 268.24589 162.91901 277.60659 162.46773 Z M 277.60659 271.1098 L 277.60659 240.53225 C 268.2459 240.08096 259.01654 236.28094 251.86781 229.13217 C 244.71905 221.98345 240.91902 212.7541 240.46774 203.3934 L 209.89018 203.3934 C 210.35472 220.57831 217.14479 237.62402 230.26041 250.73957 C 243.37596 263.8552 260.42168 270.64527 277.6066 271.1098 Z" fill="white"/><path d="M 349.10982 203.3934 L 318.53226 203.3934 C 318.08097 212.75409 314.28095 221.98344 307.13218 229.13217 C 299.98346 236.28094 290.7541 240.08096 281.39341 240.53225 L 281.3934 271.1098 C 298.57832 270.64527 315.62403 263.85519 328.73958 250.73957 C 341.8552 237.62402 348.64528 220.5783 349.10982 203.39339 Z M 349.10982 199.60657 C 348.64528 182.42166 341.8552 165.37595 328.73958 152.2604 C 315.62403 139.14478 298.57832 132.3547 281.3934 131.89017 L 281.3934 162.46773 C 290.7541 162.91901 299.98345 166.71904 307.13218 173.8678 C 314.28095 181.01653 318.08097 190.24588 318.53226 199.60658 Z M 277.60658 131.89017 C 260.42167 132.354705 243.37596 139.14478 230.26041 152.2604 C 217.14479 165.37595 210.35471 182.42167 209.89018 199.60658 L 240.46774 199.60658 C 240.91902 190.24588 244.71905 181.01653 251.86781 173.8678 C 259.01654 166.71904 268.24589 162.91901 277.60659 162.46773 Z M 277.60659 271.1098 L 277.60659 240.53225 C 268.2459 240.08096 259.01654 236.28094 251.86781 229.13217 C 244.71905 221.98345 240.91902 212.7541 240.46774 203.3934 L 209.89018 203.3934 C 210.35472 220.57831 217.14479 237.62402 230.26041 250.73957 C 243.37596 263.8552 260.42168 270.64527 277.6066 271.1098 Z" stroke="#a7a7a7" stroke-linecap="round" stroke-linejoin="round" stroke-width="1"/><circle cx="279.5" cy="201.5" r="19.50003" fill="white"/></g></g></svg>
